<mxfile host="app.diagrams.net" modified="2023-03-27T14:42:23.513Z" agent="Mozilla/5.0 (Windows NT 10.0; Win64; x64) AppleWebKit/537.36 (KHTML, like Gecko) Chrome/111.0.0.0 Safari/537.36" etag="Jl3VEp1lqyg8iaRHmEva" version="21.1.1" type="github">
  <diagram name="Page-1" id="iYBlmpluRM1crAv6GRh2">
    <mxGraphModel dx="2255" dy="687" grid="1" gridSize="10" guides="1" tooltips="1" connect="1" arrows="1" fold="1" page="1" pageScale="1" pageWidth="850" pageHeight="1100" math="0" shadow="0">
      <root>
        <mxCell id="0" />
        <mxCell id="1" parent="0" />
        <mxCell id="h7s7YZ0ps7kjXtsoYlMD-13" style="edgeStyle=orthogonalEdgeStyle;rounded=0;orthogonalLoop=1;jettySize=auto;html=1;entryX=0.5;entryY=0;entryDx=0;entryDy=0;" edge="1" parent="1" source="h7s7YZ0ps7kjXtsoYlMD-1" target="h7s7YZ0ps7kjXtsoYlMD-2">
          <mxGeometry relative="1" as="geometry" />
        </mxCell>
        <mxCell id="h7s7YZ0ps7kjXtsoYlMD-24" value="Extends" style="edgeLabel;html=1;align=center;verticalAlign=middle;resizable=0;points=[];" vertex="1" connectable="0" parent="h7s7YZ0ps7kjXtsoYlMD-13">
          <mxGeometry x="-0.2903" y="-2" relative="1" as="geometry">
            <mxPoint as="offset" />
          </mxGeometry>
        </mxCell>
        <mxCell id="h7s7YZ0ps7kjXtsoYlMD-15" style="edgeStyle=orthogonalEdgeStyle;rounded=0;orthogonalLoop=1;jettySize=auto;html=1;entryX=0.5;entryY=0;entryDx=0;entryDy=0;" edge="1" parent="1" source="h7s7YZ0ps7kjXtsoYlMD-1" target="h7s7YZ0ps7kjXtsoYlMD-3">
          <mxGeometry relative="1" as="geometry" />
        </mxCell>
        <mxCell id="h7s7YZ0ps7kjXtsoYlMD-22" value="Extends" style="edgeLabel;html=1;align=center;verticalAlign=middle;resizable=0;points=[];" vertex="1" connectable="0" parent="h7s7YZ0ps7kjXtsoYlMD-15">
          <mxGeometry x="-0.4" y="3" relative="1" as="geometry">
            <mxPoint as="offset" />
          </mxGeometry>
        </mxCell>
        <mxCell id="h7s7YZ0ps7kjXtsoYlMD-1" value="Employee&lt;br&gt;&lt;br&gt;id:int&lt;br&gt;name: string" style="rounded=0;whiteSpace=wrap;html=1;" vertex="1" parent="1">
          <mxGeometry x="220" y="80" width="120" height="60" as="geometry" />
        </mxCell>
        <mxCell id="h7s7YZ0ps7kjXtsoYlMD-12" style="edgeStyle=orthogonalEdgeStyle;rounded=0;orthogonalLoop=1;jettySize=auto;html=1;entryX=0.825;entryY=0.017;entryDx=0;entryDy=0;entryPerimeter=0;" edge="1" parent="1" source="h7s7YZ0ps7kjXtsoYlMD-2" target="h7s7YZ0ps7kjXtsoYlMD-8">
          <mxGeometry relative="1" as="geometry" />
        </mxCell>
        <mxCell id="h7s7YZ0ps7kjXtsoYlMD-21" value="Implements" style="edgeLabel;html=1;align=center;verticalAlign=middle;resizable=0;points=[];" vertex="1" connectable="0" parent="h7s7YZ0ps7kjXtsoYlMD-12">
          <mxGeometry x="0.3961" y="1" relative="1" as="geometry">
            <mxPoint as="offset" />
          </mxGeometry>
        </mxCell>
        <mxCell id="h7s7YZ0ps7kjXtsoYlMD-2" value="Hourly Employee&lt;br&gt;&lt;br&gt;Calculate_payroll(): num" style="rounded=0;whiteSpace=wrap;html=1;" vertex="1" parent="1">
          <mxGeometry x="510" y="160" width="180" height="100" as="geometry" />
        </mxCell>
        <mxCell id="h7s7YZ0ps7kjXtsoYlMD-11" style="edgeStyle=orthogonalEdgeStyle;rounded=0;orthogonalLoop=1;jettySize=auto;html=1;entryX=0.067;entryY=0.033;entryDx=0;entryDy=0;entryPerimeter=0;" edge="1" parent="1" source="h7s7YZ0ps7kjXtsoYlMD-3" target="h7s7YZ0ps7kjXtsoYlMD-8">
          <mxGeometry relative="1" as="geometry" />
        </mxCell>
        <mxCell id="h7s7YZ0ps7kjXtsoYlMD-20" value="Implements" style="edgeLabel;html=1;align=center;verticalAlign=middle;resizable=0;points=[];" vertex="1" connectable="0" parent="h7s7YZ0ps7kjXtsoYlMD-11">
          <mxGeometry x="0.2001" y="2" relative="1" as="geometry">
            <mxPoint as="offset" />
          </mxGeometry>
        </mxCell>
        <mxCell id="h7s7YZ0ps7kjXtsoYlMD-17" style="edgeStyle=orthogonalEdgeStyle;rounded=0;orthogonalLoop=1;jettySize=auto;html=1;entryX=0.5;entryY=0;entryDx=0;entryDy=0;" edge="1" parent="1" source="h7s7YZ0ps7kjXtsoYlMD-3" target="h7s7YZ0ps7kjXtsoYlMD-6">
          <mxGeometry relative="1" as="geometry" />
        </mxCell>
        <mxCell id="h7s7YZ0ps7kjXtsoYlMD-26" value="Extends" style="edgeLabel;html=1;align=center;verticalAlign=middle;resizable=0;points=[];" vertex="1" connectable="0" parent="h7s7YZ0ps7kjXtsoYlMD-17">
          <mxGeometry x="-0.2308" y="-1" relative="1" as="geometry">
            <mxPoint as="offset" />
          </mxGeometry>
        </mxCell>
        <mxCell id="h7s7YZ0ps7kjXtsoYlMD-3" value="SalaryEmployee&lt;br&gt;&lt;br&gt;Calculate_payroll(): num" style="rounded=0;whiteSpace=wrap;html=1;" vertex="1" parent="1">
          <mxGeometry x="100" y="190" width="120" height="60" as="geometry" />
        </mxCell>
        <mxCell id="h7s7YZ0ps7kjXtsoYlMD-10" style="edgeStyle=orthogonalEdgeStyle;rounded=0;orthogonalLoop=1;jettySize=auto;html=1;entryX=0;entryY=0.75;entryDx=0;entryDy=0;" edge="1" parent="1" source="h7s7YZ0ps7kjXtsoYlMD-6" target="h7s7YZ0ps7kjXtsoYlMD-8">
          <mxGeometry relative="1" as="geometry" />
        </mxCell>
        <mxCell id="h7s7YZ0ps7kjXtsoYlMD-19" value="Implements" style="edgeLabel;html=1;align=center;verticalAlign=middle;resizable=0;points=[];" vertex="1" connectable="0" parent="h7s7YZ0ps7kjXtsoYlMD-10">
          <mxGeometry x="-0.2308" y="-1" relative="1" as="geometry">
            <mxPoint as="offset" />
          </mxGeometry>
        </mxCell>
        <mxCell id="h7s7YZ0ps7kjXtsoYlMD-6" value="CommisionEmployee&lt;br&gt;&lt;br&gt;Calculate_payroll():&lt;br&gt;num" style="rounded=0;whiteSpace=wrap;html=1;" vertex="1" parent="1">
          <mxGeometry x="100" y="380" width="120" height="60" as="geometry" />
        </mxCell>
        <mxCell id="h7s7YZ0ps7kjXtsoYlMD-8" value="PayrollCalculator&lt;br&gt;id:int&lt;br&gt;name:string&lt;br&gt;Calculate_payroll():num" style="rounded=0;whiteSpace=wrap;html=1;" vertex="1" parent="1">
          <mxGeometry x="430" y="400" width="140" height="80" as="geometry" />
        </mxCell>
        <mxCell id="h7s7YZ0ps7kjXtsoYlMD-27" value="&lt;pre style=&quot;box-sizing: border-box; font-family: SFMono-Regular, Menlo, Monaco, Consolas, &amp;quot;liberation mono&amp;quot;, &amp;quot;courier new&amp;quot;, monospace; font-size: 14.4px; margin-top: 0px; margin-bottom: 0px; overflow: auto; color: rgb(33, 37, 41); line-height: 1.5em; background-color: rgb(246, 246, 246); padding: 1em; border-radius: 3px; overflow-wrap: normal; position: relative; text-align: left;&quot;&gt;&lt;pre style=&quot;box-sizing: border-box; font-family: SFMono-Regular, Menlo, Monaco, Consolas, &amp;quot;liberation mono&amp;quot;, &amp;quot;courier new&amp;quot;, monospace; font-size: 14.4px; margin-top: 0px; margin-bottom: 0px; overflow: auto; line-height: 1.5em; padding: 1em; border-radius: 3px; overflow-wrap: normal; position: relative;&quot;&gt;&lt;code style=&quot;box-sizing: border-box; font-family: SFMono-Regular, Menlo, Monaco, Consolas, &amp;quot;liberation mono&amp;quot;, &amp;quot;courier new&amp;quot;, monospace; font-size: inherit; color: inherit; overflow-wrap: normal; word-break: normal;&quot;&gt;class &lt;span style=&quot;box-sizing: border-box; color: rgb(0, 0, 0);&quot; class=&quot;nc&quot;&gt;PayrollSystem&lt;/span&gt;&lt;span style=&quot;box-sizing: border-box; color: rgb(0, 0, 0);&quot; class=&quot;p&quot;&gt;:&lt;/span&gt;&lt;br/&gt;    &lt;span style=&quot;box-sizing: border-box; color: rgb(32, 74, 135);&quot; class=&quot;k&quot;&gt;def&lt;/span&gt; &lt;span style=&quot;box-sizing: border-box; color: rgb(0, 0, 0);&quot; class=&quot;nf&quot;&gt;calculate_payroll&lt;/span&gt;&lt;span style=&quot;box-sizing: border-box; color: rgb(0, 0, 0);&quot; class=&quot;p&quot;&gt;(&lt;/span&gt;&lt;span style=&quot;box-sizing: border-box; color: rgb(52, 101, 164);&quot; class=&quot;bp&quot;&gt;self&lt;/span&gt;&lt;span style=&quot;box-sizing: border-box; color: rgb(0, 0, 0);&quot; class=&quot;p&quot;&gt;,&lt;/span&gt; &lt;span style=&quot;box-sizing: border-box; color: rgb(0, 0, 0);&quot; class=&quot;n&quot;&gt;employees&lt;/span&gt;&lt;span style=&quot;box-sizing: border-box; color: rgb(0, 0, 0);&quot; class=&quot;p&quot;&gt;):&lt;/span&gt;&lt;br/&gt;        &lt;span style=&quot;box-sizing: border-box; color: rgb(32, 74, 135);&quot; class=&quot;nb&quot;&gt;print&lt;/span&gt;&lt;span style=&quot;box-sizing: border-box; color: rgb(0, 0, 0);&quot; class=&quot;p&quot;&gt;(&lt;/span&gt;&lt;span style=&quot;box-sizing: border-box; color: rgb(78, 154, 6);&quot; class=&quot;s1&quot;&gt;&#39;Calculating Payroll&#39;&lt;/span&gt;&lt;span style=&quot;box-sizing: border-box; color: rgb(0, 0, 0);&quot; class=&quot;p&quot;&gt;)&lt;/span&gt;&lt;br/&gt;        &lt;span style=&quot;box-sizing: border-box; color: rgb(32, 74, 135);&quot; class=&quot;nb&quot;&gt;print&lt;/span&gt;&lt;span style=&quot;box-sizing: border-box; color: rgb(0, 0, 0);&quot; class=&quot;p&quot;&gt;(&lt;/span&gt;&lt;span style=&quot;box-sizing: border-box; color: rgb(78, 154, 6);&quot; class=&quot;s1&quot;&gt;&#39;===================&#39;&lt;/span&gt;&lt;span style=&quot;box-sizing: border-box; color: rgb(0, 0, 0);&quot; class=&quot;p&quot;&gt;)&lt;/span&gt;&lt;br/&gt;        &lt;span style=&quot;box-sizing: border-box; color: rgb(32, 74, 135);&quot; class=&quot;k&quot;&gt;for&lt;/span&gt; &lt;span style=&quot;box-sizing: border-box; color: rgb(0, 0, 0);&quot; class=&quot;n&quot;&gt;employee&lt;/span&gt; &lt;span style=&quot;box-sizing: border-box; color: rgb(32, 74, 135);&quot; class=&quot;ow&quot;&gt;in&lt;/span&gt; &lt;span style=&quot;box-sizing: border-box; color: rgb(0, 0, 0);&quot; class=&quot;n&quot;&gt;employees&lt;/span&gt;&lt;span style=&quot;box-sizing: border-box; color: rgb(0, 0, 0);&quot; class=&quot;p&quot;&gt;:&lt;/span&gt;&lt;br/&gt;            &lt;span style=&quot;box-sizing: border-box; color: rgb(32, 74, 135);&quot; class=&quot;nb&quot;&gt;print&lt;/span&gt;&lt;span style=&quot;box-sizing: border-box; color: rgb(0, 0, 0);&quot; class=&quot;p&quot;&gt;(&lt;/span&gt;&lt;span style=&quot;box-sizing: border-box; color: rgb(27, 103, 0);&quot; class=&quot;sa&quot;&gt;f&lt;/span&gt;&lt;span style=&quot;box-sizing: border-box; color: rgb(78, 154, 6);&quot; class=&quot;s1&quot;&gt;&#39;Payroll for: &lt;/span&gt;&lt;span style=&quot;box-sizing: border-box; color: rgb(27, 103, 0);&quot; class=&quot;si&quot;&gt;{&lt;/span&gt;&lt;span style=&quot;box-sizing: border-box; color: rgb(0, 0, 0);&quot; class=&quot;n&quot;&gt;employee&lt;/span&gt;&lt;span style=&quot;box-sizing: border-box; color: rgb(206, 92, 0);&quot; class=&quot;o&quot;&gt;.&lt;/span&gt;&lt;span style=&quot;box-sizing: border-box; color: rgb(0, 0, 0);&quot; class=&quot;n&quot;&gt;id&lt;/span&gt;&lt;span style=&quot;box-sizing: border-box; color: rgb(27, 103, 0);&quot; class=&quot;si&quot;&gt;}&lt;/span&gt;&lt;span style=&quot;box-sizing: border-box; color: rgb(78, 154, 6);&quot; class=&quot;s1&quot;&gt; - &lt;/span&gt;&lt;span style=&quot;box-sizing: border-box; color: rgb(27, 103, 0);&quot; class=&quot;si&quot;&gt;{&lt;/span&gt;&lt;span style=&quot;box-sizing: border-box; color: rgb(0, 0, 0);&quot; class=&quot;n&quot;&gt;employee&lt;/span&gt;&lt;span style=&quot;box-sizing: border-box; color: rgb(206, 92, 0);&quot; class=&quot;o&quot;&gt;.&lt;/span&gt;&lt;span style=&quot;box-sizing: border-box; color: rgb(0, 0, 0);&quot; class=&quot;n&quot;&gt;name&lt;/span&gt;&lt;span style=&quot;box-sizing: border-box; color: rgb(27, 103, 0);&quot; class=&quot;si&quot;&gt;}&lt;/span&gt;&lt;span style=&quot;box-sizing: border-box; color: rgb(78, 154, 6);&quot; class=&quot;s1&quot;&gt;&#39;&lt;/span&gt;&lt;span style=&quot;box-sizing: border-box; color: rgb(0, 0, 0);&quot; class=&quot;p&quot;&gt;)&lt;/span&gt;&lt;br/&gt;            &lt;span style=&quot;box-sizing: border-box; color: rgb(32, 74, 135);&quot; class=&quot;nb&quot;&gt;print&lt;/span&gt;&lt;span style=&quot;box-sizing: border-box; color: rgb(0, 0, 0);&quot; class=&quot;p&quot;&gt;(&lt;/span&gt;&lt;span style=&quot;box-sizing: border-box; color: rgb(27, 103, 0);&quot; class=&quot;sa&quot;&gt;f&lt;/span&gt;&lt;span style=&quot;box-sizing: border-box; color: rgb(78, 154, 6);&quot; class=&quot;s1&quot;&gt;&#39;- Check amount: &lt;/span&gt;&lt;span style=&quot;box-sizing: border-box; color: rgb(27, 103, 0);&quot; class=&quot;si&quot;&gt;{&lt;/span&gt;&lt;span style=&quot;box-sizing: border-box; color: rgb(0, 0, 0);&quot; class=&quot;n&quot;&gt;employee&lt;/span&gt;&lt;span style=&quot;box-sizing: border-box; color: rgb(206, 92, 0);&quot; class=&quot;o&quot;&gt;.&lt;/span&gt;&lt;span style=&quot;box-sizing: border-box; color: rgb(0, 0, 0);&quot; class=&quot;n&quot;&gt;calculate_payroll&lt;/span&gt;&lt;span style=&quot;box-sizing: border-box; color: rgb(0, 0, 0);&quot; class=&quot;p&quot;&gt;()&lt;/span&gt;&lt;span style=&quot;box-sizing: border-box; color: rgb(27, 103, 0);&quot; class=&quot;si&quot;&gt;}&lt;/span&gt;&lt;span style=&quot;box-sizing: border-box; color: rgb(78, 154, 6);&quot; class=&quot;s1&quot;&gt;&#39;&lt;/span&gt;&lt;span style=&quot;box-sizing: border-box; color: rgb(0, 0, 0);&quot; class=&quot;p&quot;&gt;)&lt;/span&gt;&lt;br/&gt;            &lt;span style=&quot;box-sizing: border-box; color: rgb(32, 74, 135);&quot; class=&quot;nb&quot;&gt;print&lt;/span&gt;&lt;span style=&quot;box-sizing: border-box; color: rgb(0, 0, 0);&quot; class=&quot;p&quot;&gt;(&lt;/span&gt;&lt;span style=&quot;box-sizing: border-box; color: rgb(78, 154, 6);&quot; class=&quot;s1&quot;&gt;&#39;&#39;&lt;/span&gt;&lt;span style=&quot;box-sizing: border-box; color: rgb(0, 0, 0);&quot; class=&quot;p&quot;&gt;)&lt;/span&gt;&lt;br/&gt;&lt;br/&gt;&lt;span style=&quot;box-sizing: border-box; color: rgb(32, 74, 135);&quot; class=&quot;k&quot;&gt;class&lt;/span&gt; &lt;span style=&quot;box-sizing: border-box; color: rgb(0, 0, 0);&quot; class=&quot;nc&quot;&gt;Employee&lt;/span&gt;&lt;span style=&quot;box-sizing: border-box; color: rgb(0, 0, 0);&quot; class=&quot;p&quot;&gt;:&lt;/span&gt;&lt;br/&gt;    &lt;span style=&quot;box-sizing: border-box; color: rgb(32, 74, 135);&quot; class=&quot;k&quot;&gt;def&lt;/span&gt; &lt;span style=&quot;box-sizing: border-box;&quot; class=&quot;fm&quot;&gt;__init__&lt;/span&gt;&lt;span style=&quot;box-sizing: border-box; color: rgb(0, 0, 0);&quot; class=&quot;p&quot;&gt;(&lt;/span&gt;&lt;span style=&quot;box-sizing: border-box; color: rgb(52, 101, 164);&quot; class=&quot;bp&quot;&gt;self&lt;/span&gt;&lt;span style=&quot;box-sizing: border-box; color: rgb(0, 0, 0);&quot; class=&quot;p&quot;&gt;,&lt;/span&gt; &lt;span style=&quot;box-sizing: border-box; color: rgb(32, 74, 135);&quot; class=&quot;nb&quot;&gt;id&lt;/span&gt;&lt;span style=&quot;box-sizing: border-box; color: rgb(0, 0, 0);&quot; class=&quot;p&quot;&gt;,&lt;/span&gt; &lt;span style=&quot;box-sizing: border-box; color: rgb(0, 0, 0);&quot; class=&quot;n&quot;&gt;name&lt;/span&gt;&lt;span style=&quot;box-sizing: border-box; color: rgb(0, 0, 0);&quot; class=&quot;p&quot;&gt;):&lt;/span&gt;&lt;br/&gt;        &lt;span style=&quot;box-sizing: border-box; color: rgb(52, 101, 164);&quot; class=&quot;bp&quot;&gt;self&lt;/span&gt;&lt;span style=&quot;box-sizing: border-box; color: rgb(206, 92, 0);&quot; class=&quot;o&quot;&gt;.&lt;/span&gt;&lt;span style=&quot;box-sizing: border-box; color: rgb(0, 0, 0);&quot; class=&quot;n&quot;&gt;id&lt;/span&gt; &lt;span style=&quot;box-sizing: border-box; color: rgb(206, 92, 0);&quot; class=&quot;o&quot;&gt;=&lt;/span&gt; &lt;span style=&quot;box-sizing: border-box; color: rgb(32, 74, 135);&quot; class=&quot;nb&quot;&gt;id&lt;/span&gt;&lt;br/&gt;        &lt;span style=&quot;box-sizing: border-box; color: rgb(52, 101, 164);&quot; class=&quot;bp&quot;&gt;self&lt;/span&gt;&lt;span style=&quot;box-sizing: border-box; color: rgb(206, 92, 0);&quot; class=&quot;o&quot;&gt;.&lt;/span&gt;&lt;span style=&quot;box-sizing: border-box; color: rgb(0, 0, 0);&quot; class=&quot;n&quot;&gt;name&lt;/span&gt; &lt;span style=&quot;box-sizing: border-box; color: rgb(206, 92, 0);&quot; class=&quot;o&quot;&gt;=&lt;/span&gt; &lt;span style=&quot;box-sizing: border-box; color: rgb(0, 0, 0);&quot; class=&quot;n&quot;&gt;name&lt;/span&gt;&lt;br/&gt;&lt;br/&gt;&lt;span style=&quot;box-sizing: border-box; color: rgb(32, 74, 135);&quot; class=&quot;k&quot;&gt;class&lt;/span&gt; &lt;span style=&quot;box-sizing: border-box; color: rgb(0, 0, 0);&quot; class=&quot;nc&quot;&gt;SalaryEmployee&lt;/span&gt;&lt;span style=&quot;box-sizing: border-box; color: rgb(0, 0, 0);&quot; class=&quot;p&quot;&gt;(&lt;/span&gt;&lt;span style=&quot;box-sizing: border-box; color: rgb(0, 0, 0);&quot; class=&quot;n&quot;&gt;Employee&lt;/span&gt;&lt;span style=&quot;box-sizing: border-box; color: rgb(0, 0, 0);&quot; class=&quot;p&quot;&gt;):&lt;/span&gt;&lt;br/&gt;    &lt;span style=&quot;box-sizing: border-box; color: rgb(32, 74, 135);&quot; class=&quot;k&quot;&gt;def&lt;/span&gt; &lt;span style=&quot;box-sizing: border-box;&quot; class=&quot;fm&quot;&gt;__init__&lt;/span&gt;&lt;span style=&quot;box-sizing: border-box; color: rgb(0, 0, 0);&quot; class=&quot;p&quot;&gt;(&lt;/span&gt;&lt;span style=&quot;box-sizing: border-box; color: rgb(52, 101, 164);&quot; class=&quot;bp&quot;&gt;self&lt;/span&gt;&lt;span style=&quot;box-sizing: border-box; color: rgb(0, 0, 0);&quot; class=&quot;p&quot;&gt;,&lt;/span&gt; &lt;span style=&quot;box-sizing: border-box; color: rgb(32, 74, 135);&quot; class=&quot;nb&quot;&gt;id&lt;/span&gt;&lt;span style=&quot;box-sizing: border-box; color: rgb(0, 0, 0);&quot; class=&quot;p&quot;&gt;,&lt;/span&gt; &lt;span style=&quot;box-sizing: border-box; color: rgb(0, 0, 0);&quot; class=&quot;n&quot;&gt;name&lt;/span&gt;&lt;span style=&quot;box-sizing: border-box; color: rgb(0, 0, 0);&quot; class=&quot;p&quot;&gt;,&lt;/span&gt; &lt;span style=&quot;box-sizing: border-box; color: rgb(0, 0, 0);&quot; class=&quot;n&quot;&gt;weekly_salary&lt;/span&gt;&lt;span style=&quot;box-sizing: border-box; color: rgb(0, 0, 0);&quot; class=&quot;p&quot;&gt;):&lt;/span&gt;&lt;br/&gt;        &lt;span style=&quot;box-sizing: border-box; color: rgb(32, 74, 135);&quot; class=&quot;nb&quot;&gt;super&lt;/span&gt;&lt;span style=&quot;box-sizing: border-box; color: rgb(0, 0, 0);&quot; class=&quot;p&quot;&gt;()&lt;/span&gt;&lt;span style=&quot;box-sizing: border-box; color: rgb(206, 92, 0);&quot; class=&quot;o&quot;&gt;.&lt;/span&gt;&lt;span style=&quot;box-sizing: border-box;&quot; class=&quot;fm&quot;&gt;__init__&lt;/span&gt;&lt;span style=&quot;box-sizing: border-box; color: rgb(0, 0, 0);&quot; class=&quot;p&quot;&gt;(&lt;/span&gt;&lt;span style=&quot;box-sizing: border-box; color: rgb(32, 74, 135);&quot; class=&quot;nb&quot;&gt;id&lt;/span&gt;&lt;span style=&quot;box-sizing: border-box; color: rgb(0, 0, 0);&quot; class=&quot;p&quot;&gt;,&lt;/span&gt; &lt;span style=&quot;box-sizing: border-box; color: rgb(0, 0, 0);&quot; class=&quot;n&quot;&gt;name&lt;/span&gt;&lt;span style=&quot;box-sizing: border-box; color: rgb(0, 0, 0);&quot; class=&quot;p&quot;&gt;)&lt;/span&gt;&lt;br/&gt;        &lt;span style=&quot;box-sizing: border-box; color: rgb(52, 101, 164);&quot; class=&quot;bp&quot;&gt;self&lt;/span&gt;&lt;span style=&quot;box-sizing: border-box; color: rgb(206, 92, 0);&quot; class=&quot;o&quot;&gt;.&lt;/span&gt;&lt;span style=&quot;box-sizing: border-box; color: rgb(0, 0, 0);&quot; class=&quot;n&quot;&gt;weekly_salary&lt;/span&gt; &lt;span style=&quot;box-sizing: border-box; color: rgb(206, 92, 0);&quot; class=&quot;o&quot;&gt;=&lt;/span&gt; &lt;span style=&quot;box-sizing: border-box; color: rgb(0, 0, 0);&quot; class=&quot;n&quot;&gt;weekly_salary&lt;/span&gt;&lt;br/&gt;&lt;br/&gt;    &lt;span style=&quot;box-sizing: border-box; color: rgb(32, 74, 135);&quot; class=&quot;k&quot;&gt;def&lt;/span&gt; &lt;span style=&quot;box-sizing: border-box; color: rgb(0, 0, 0);&quot; class=&quot;nf&quot;&gt;calculate_payroll&lt;/span&gt;&lt;span style=&quot;box-sizing: border-box; color: rgb(0, 0, 0);&quot; class=&quot;p&quot;&gt;(&lt;/span&gt;&lt;span style=&quot;box-sizing: border-box; color: rgb(52, 101, 164);&quot; class=&quot;bp&quot;&gt;self&lt;/span&gt;&lt;span style=&quot;box-sizing: border-box; color: rgb(0, 0, 0);&quot; class=&quot;p&quot;&gt;):&lt;/span&gt;&lt;br/&gt;        &lt;span style=&quot;box-sizing: border-box; color: rgb(32, 74, 135);&quot; class=&quot;k&quot;&gt;return&lt;/span&gt; &lt;span style=&quot;box-sizing: border-box; color: rgb(52, 101, 164);&quot; class=&quot;bp&quot;&gt;self&lt;/span&gt;&lt;span style=&quot;box-sizing: border-box; color: rgb(206, 92, 0);&quot; class=&quot;o&quot;&gt;.&lt;/span&gt;&lt;span style=&quot;box-sizing: border-box; color: rgb(0, 0, 0);&quot; class=&quot;n&quot;&gt;weekly_salary&lt;/span&gt;&lt;br/&gt;&lt;br/&gt;&lt;span style=&quot;box-sizing: border-box; color: rgb(32, 74, 135);&quot; class=&quot;k&quot;&gt;class&lt;/span&gt; &lt;span style=&quot;box-sizing: border-box; color: rgb(0, 0, 0);&quot; class=&quot;nc&quot;&gt;HourlyEmployee&lt;/span&gt;&lt;span style=&quot;box-sizing: border-box; color: rgb(0, 0, 0);&quot; class=&quot;p&quot;&gt;(&lt;/span&gt;&lt;span style=&quot;box-sizing: border-box; color: rgb(0, 0, 0);&quot; class=&quot;n&quot;&gt;Employee&lt;/span&gt;&lt;span style=&quot;box-sizing: border-box; color: rgb(0, 0, 0);&quot; class=&quot;p&quot;&gt;):&lt;/span&gt;&lt;br/&gt;    &lt;span style=&quot;box-sizing: border-box; color: rgb(32, 74, 135);&quot; class=&quot;k&quot;&gt;def&lt;/span&gt; &lt;span style=&quot;box-sizing: border-box;&quot; class=&quot;fm&quot;&gt;__init__&lt;/span&gt;&lt;span style=&quot;box-sizing: border-box; color: rgb(0, 0, 0);&quot; class=&quot;p&quot;&gt;(&lt;/span&gt;&lt;span style=&quot;box-sizing: border-box; color: rgb(52, 101, 164);&quot; class=&quot;bp&quot;&gt;self&lt;/span&gt;&lt;span style=&quot;box-sizing: border-box; color: rgb(0, 0, 0);&quot; class=&quot;p&quot;&gt;,&lt;/span&gt; &lt;span style=&quot;box-sizing: border-box; color: rgb(32, 74, 135);&quot; class=&quot;nb&quot;&gt;id&lt;/span&gt;&lt;span style=&quot;box-sizing: border-box; color: rgb(0, 0, 0);&quot; class=&quot;p&quot;&gt;,&lt;/span&gt; &lt;span style=&quot;box-sizing: border-box; color: rgb(0, 0, 0);&quot; class=&quot;n&quot;&gt;name&lt;/span&gt;&lt;span style=&quot;box-sizing: border-box; color: rgb(0, 0, 0);&quot; class=&quot;p&quot;&gt;,&lt;/span&gt; &lt;span style=&quot;box-sizing: border-box; color: rgb(0, 0, 0);&quot; class=&quot;n&quot;&gt;hours_worked&lt;/span&gt;&lt;span style=&quot;box-sizing: border-box; color: rgb(0, 0, 0);&quot; class=&quot;p&quot;&gt;,&lt;/span&gt; &lt;span style=&quot;box-sizing: border-box; color: rgb(0, 0, 0);&quot; class=&quot;n&quot;&gt;hour_rate&lt;/span&gt;&lt;span style=&quot;box-sizing: border-box; color: rgb(0, 0, 0);&quot; class=&quot;p&quot;&gt;):&lt;/span&gt;&lt;br/&gt;        &lt;span style=&quot;box-sizing: border-box; color: rgb(32, 74, 135);&quot; class=&quot;nb&quot;&gt;super&lt;/span&gt;&lt;span style=&quot;box-sizing: border-box; color: rgb(0, 0, 0);&quot; class=&quot;p&quot;&gt;()&lt;/span&gt;&lt;span style=&quot;box-sizing: border-box; color: rgb(206, 92, 0);&quot; class=&quot;o&quot;&gt;.&lt;/span&gt;&lt;span style=&quot;box-sizing: border-box;&quot; class=&quot;fm&quot;&gt;__init__&lt;/span&gt;&lt;span style=&quot;box-sizing: border-box; color: rgb(0, 0, 0);&quot; class=&quot;p&quot;&gt;(&lt;/span&gt;&lt;span style=&quot;box-sizing: border-box; color: rgb(32, 74, 135);&quot; class=&quot;nb&quot;&gt;id&lt;/span&gt;&lt;span style=&quot;box-sizing: border-box; color: rgb(0, 0, 0);&quot; class=&quot;p&quot;&gt;,&lt;/span&gt; &lt;span style=&quot;box-sizing: border-box; color: rgb(0, 0, 0);&quot; class=&quot;n&quot;&gt;name&lt;/span&gt;&lt;span style=&quot;box-sizing: border-box; color: rgb(0, 0, 0);&quot; class=&quot;p&quot;&gt;)&lt;/span&gt;&lt;br/&gt;        &lt;span style=&quot;box-sizing: border-box; color: rgb(52, 101, 164);&quot; class=&quot;bp&quot;&gt;self&lt;/span&gt;&lt;span style=&quot;box-sizing: border-box; color: rgb(206, 92, 0);&quot; class=&quot;o&quot;&gt;.&lt;/span&gt;&lt;span style=&quot;box-sizing: border-box; color: rgb(0, 0, 0);&quot; class=&quot;n&quot;&gt;hours_worked&lt;/span&gt; &lt;span style=&quot;box-sizing: border-box; color: rgb(206, 92, 0);&quot; class=&quot;o&quot;&gt;=&lt;/span&gt; &lt;span style=&quot;box-sizing: border-box; color: rgb(0, 0, 0);&quot; class=&quot;n&quot;&gt;hours_worked&lt;/span&gt;&lt;br/&gt;        &lt;span style=&quot;box-sizing: border-box; color: rgb(52, 101, 164);&quot; class=&quot;bp&quot;&gt;self&lt;/span&gt;&lt;span style=&quot;box-sizing: border-box; color: rgb(206, 92, 0);&quot; class=&quot;o&quot;&gt;.&lt;/span&gt;&lt;span style=&quot;box-sizing: border-box; color: rgb(0, 0, 0);&quot; class=&quot;n&quot;&gt;hour_rate&lt;/span&gt; &lt;span style=&quot;box-sizing: border-box; color: rgb(206, 92, 0);&quot; class=&quot;o&quot;&gt;=&lt;/span&gt; &lt;span style=&quot;box-sizing: border-box; color: rgb(0, 0, 0);&quot; class=&quot;n&quot;&gt;hour_rate&lt;/span&gt;&lt;br/&gt;&lt;br/&gt;    &lt;span style=&quot;box-sizing: border-box; color: rgb(32, 74, 135);&quot; class=&quot;k&quot;&gt;def&lt;/span&gt; &lt;span style=&quot;box-sizing: border-box; color: rgb(0, 0, 0);&quot; class=&quot;nf&quot;&gt;calculate_payroll&lt;/span&gt;&lt;span style=&quot;box-sizing: border-box; color: rgb(0, 0, 0);&quot; class=&quot;p&quot;&gt;(&lt;/span&gt;&lt;span style=&quot;box-sizing: border-box; color: rgb(52, 101, 164);&quot; class=&quot;bp&quot;&gt;self&lt;/span&gt;&lt;span style=&quot;box-sizing: border-box; color: rgb(0, 0, 0);&quot; class=&quot;p&quot;&gt;):&lt;/span&gt;&lt;br/&gt;        &lt;span style=&quot;box-sizing: border-box; color: rgb(32, 74, 135);&quot; class=&quot;k&quot;&gt;return&lt;/span&gt; &lt;span style=&quot;box-sizing: border-box; color: rgb(52, 101, 164);&quot; class=&quot;bp&quot;&gt;self&lt;/span&gt;&lt;span style=&quot;box-sizing: border-box; color: rgb(206, 92, 0);&quot; class=&quot;o&quot;&gt;.&lt;/span&gt;&lt;span style=&quot;box-sizing: border-box; color: rgb(0, 0, 0);&quot; class=&quot;n&quot;&gt;hours_worked&lt;/span&gt; &lt;span style=&quot;box-sizing: border-box; color: rgb(206, 92, 0);&quot; class=&quot;o&quot;&gt;*&lt;/span&gt; &lt;span style=&quot;box-sizing: border-box; color: rgb(52, 101, 164);&quot; class=&quot;bp&quot;&gt;self&lt;/span&gt;&lt;span style=&quot;box-sizing: border-box; color: rgb(206, 92, 0);&quot; class=&quot;o&quot;&gt;.&lt;/span&gt;&lt;span style=&quot;box-sizing: border-box; color: rgb(0, 0, 0);&quot; class=&quot;n&quot;&gt;hour_rate&lt;/span&gt;&lt;br/&gt;&lt;br/&gt;&lt;span style=&quot;box-sizing: border-box; color: rgb(32, 74, 135);&quot; class=&quot;k&quot;&gt;class&lt;/span&gt; &lt;span style=&quot;box-sizing: border-box; color: rgb(0, 0, 0);&quot; class=&quot;nc&quot;&gt;CommissionEmployee&lt;/span&gt;&lt;span style=&quot;box-sizing: border-box; color: rgb(0, 0, 0);&quot; class=&quot;p&quot;&gt;(&lt;/span&gt;&lt;span style=&quot;box-sizing: border-box; color: rgb(0, 0, 0);&quot; class=&quot;n&quot;&gt;SalaryEmployee&lt;/span&gt;&lt;span style=&quot;box-sizing: border-box; color: rgb(0, 0, 0);&quot; class=&quot;p&quot;&gt;):&lt;/span&gt;&lt;br/&gt;    &lt;span style=&quot;box-sizing: border-box; color: rgb(32, 74, 135);&quot; class=&quot;k&quot;&gt;def&lt;/span&gt; &lt;span style=&quot;box-sizing: border-box;&quot; class=&quot;fm&quot;&gt;__init__&lt;/span&gt;&lt;span style=&quot;box-sizing: border-box; color: rgb(0, 0, 0);&quot; class=&quot;p&quot;&gt;(&lt;/span&gt;&lt;span style=&quot;box-sizing: border-box; color: rgb(52, 101, 164);&quot; class=&quot;bp&quot;&gt;self&lt;/span&gt;&lt;span style=&quot;box-sizing: border-box; color: rgb(0, 0, 0);&quot; class=&quot;p&quot;&gt;,&lt;/span&gt; &lt;span style=&quot;box-sizing: border-box; color: rgb(32, 74, 135);&quot; class=&quot;nb&quot;&gt;id&lt;/span&gt;&lt;span style=&quot;box-sizing: border-box; color: rgb(0, 0, 0);&quot; class=&quot;p&quot;&gt;,&lt;/span&gt; &lt;span style=&quot;box-sizing: border-box; color: rgb(0, 0, 0);&quot; class=&quot;n&quot;&gt;name&lt;/span&gt;&lt;span style=&quot;box-sizing: border-box; color: rgb(0, 0, 0);&quot; class=&quot;p&quot;&gt;,&lt;/span&gt; &lt;span style=&quot;box-sizing: border-box; color: rgb(0, 0, 0);&quot; class=&quot;n&quot;&gt;weekly_salary&lt;/span&gt;&lt;span style=&quot;box-sizing: border-box; color: rgb(0, 0, 0);&quot; class=&quot;p&quot;&gt;,&lt;/span&gt; &lt;span style=&quot;box-sizing: border-box; color: rgb(0, 0, 0);&quot; class=&quot;n&quot;&gt;commission&lt;/span&gt;&lt;span style=&quot;box-sizing: border-box; color: rgb(0, 0, 0);&quot; class=&quot;p&quot;&gt;):&lt;/span&gt;&lt;br/&gt;        &lt;span style=&quot;box-sizing: border-box; color: rgb(32, 74, 135);&quot; class=&quot;nb&quot;&gt;super&lt;/span&gt;&lt;span style=&quot;box-sizing: border-box; color: rgb(0, 0, 0);&quot; class=&quot;p&quot;&gt;()&lt;/span&gt;&lt;span style=&quot;box-sizing: border-box; color: rgb(206, 92, 0);&quot; class=&quot;o&quot;&gt;.&lt;/span&gt;&lt;span style=&quot;box-sizing: border-box;&quot; class=&quot;fm&quot;&gt;__init__&lt;/span&gt;&lt;span style=&quot;box-sizing: border-box; color: rgb(0, 0, 0);&quot; class=&quot;p&quot;&gt;(&lt;/span&gt;&lt;span style=&quot;box-sizing: border-box; color: rgb(32, 74, 135);&quot; class=&quot;nb&quot;&gt;id&lt;/span&gt;&lt;span style=&quot;box-sizing: border-box; color: rgb(0, 0, 0);&quot; class=&quot;p&quot;&gt;,&lt;/span&gt; &lt;span style=&quot;box-sizing: border-box; color: rgb(0, 0, 0);&quot; class=&quot;n&quot;&gt;name&lt;/span&gt;&lt;span style=&quot;box-sizing: border-box; color: rgb(0, 0, 0);&quot; class=&quot;p&quot;&gt;,&lt;/span&gt; &lt;span style=&quot;box-sizing: border-box; color: rgb(0, 0, 0);&quot; class=&quot;n&quot;&gt;weekly_salary&lt;/span&gt;&lt;span style=&quot;box-sizing: border-box; color: rgb(0, 0, 0);&quot; class=&quot;p&quot;&gt;)&lt;/span&gt;&lt;br/&gt;        &lt;span style=&quot;box-sizing: border-box; color: rgb(52, 101, 164);&quot; class=&quot;bp&quot;&gt;self&lt;/span&gt;&lt;span style=&quot;box-sizing: border-box; color: rgb(206, 92, 0);&quot; class=&quot;o&quot;&gt;.&lt;/span&gt;&lt;span style=&quot;box-sizing: border-box; color: rgb(0, 0, 0);&quot; class=&quot;n&quot;&gt;commission&lt;/span&gt; &lt;span style=&quot;box-sizing: border-box; color: rgb(206, 92, 0);&quot; class=&quot;o&quot;&gt;=&lt;/span&gt; &lt;span style=&quot;box-sizing: border-box; color: rgb(0, 0, 0);&quot; class=&quot;n&quot;&gt;commission&lt;/span&gt;&lt;br/&gt;&lt;br/&gt;    &lt;span style=&quot;box-sizing: border-box; color: rgb(32, 74, 135);&quot; class=&quot;k&quot;&gt;def&lt;/span&gt; &lt;span style=&quot;box-sizing: border-box; color: rgb(0, 0, 0);&quot; class=&quot;nf&quot;&gt;calculate_payroll&lt;/span&gt;&lt;span style=&quot;box-sizing: border-box; color: rgb(0, 0, 0);&quot; class=&quot;p&quot;&gt;(&lt;/span&gt;&lt;span style=&quot;box-sizing: border-box; color: rgb(52, 101, 164);&quot; class=&quot;bp&quot;&gt;self&lt;/span&gt;&lt;span style=&quot;box-sizing: border-box; color: rgb(0, 0, 0);&quot; class=&quot;p&quot;&gt;):&lt;/span&gt;&lt;br/&gt;        &lt;span style=&quot;box-sizing: border-box; color: rgb(0, 0, 0);&quot; class=&quot;n&quot;&gt;fixed&lt;/span&gt; &lt;span style=&quot;box-sizing: border-box; color: rgb(206, 92, 0);&quot; class=&quot;o&quot;&gt;=&lt;/span&gt; &lt;span style=&quot;box-sizing: border-box; color: rgb(32, 74, 135);&quot; class=&quot;nb&quot;&gt;super&lt;/span&gt;&lt;span style=&quot;box-sizing: border-box; color: rgb(0, 0, 0);&quot; class=&quot;p&quot;&gt;()&lt;/span&gt;&lt;span style=&quot;box-sizing: border-box; color: rgb(206, 92, 0);&quot; class=&quot;o&quot;&gt;.&lt;/span&gt;&lt;span style=&quot;box-sizing: border-box; color: rgb(0, 0, 0);&quot; class=&quot;n&quot;&gt;calculate_payroll&lt;/span&gt;&lt;span style=&quot;box-sizing: border-box; color: rgb(0, 0, 0);&quot; class=&quot;p&quot;&gt;()&lt;/span&gt;&lt;br/&gt;        &lt;span style=&quot;box-sizing: border-box; color: rgb(32, 74, 135);&quot; class=&quot;k&quot;&gt;return&lt;/span&gt; &lt;span style=&quot;box-sizing: border-box; color: rgb(0, 0, 0);&quot; class=&quot;n&quot;&gt;fixed&lt;/span&gt; &lt;span style=&quot;box-sizing: border-box; color: rgb(206, 92, 0);&quot; class=&quot;o&quot;&gt;+&lt;/span&gt; &lt;span style=&quot;box-sizing: border-box; color: rgb(52, 101, 164);&quot; class=&quot;bp&quot;&gt;self&lt;/span&gt;&lt;span style=&quot;box-sizing: border-box; color: rgb(206, 92, 0);&quot; class=&quot;o&quot;&gt;.&lt;/span&gt;&lt;span style=&quot;box-sizing: border-box; color: rgb(0, 0, 0);&quot; class=&quot;n&quot;&gt;commission&lt;/span&gt;&lt;/code&gt;&lt;/pre&gt;&lt;/pre&gt;" style="text;html=1;align=center;verticalAlign=middle;resizable=0;points=[];autosize=1;strokeColor=none;fillColor=none;" vertex="1" parent="1">
          <mxGeometry x="-40" y="870" width="620" height="910" as="geometry" />
        </mxCell>
      </root>
    </mxGraphModel>
  </diagram>
</mxfile>
